# xmcd
#
# Track frame offsets: 
#        150
#        17508
#        39188
#        57720
#
# Disc length: 882 seconds
#
# Revision: 0
# Processed by: cddbd v1.5.2PL0 Copyright (c) Steve Scherf et al.
# Submitted via: ExactAudioCopy v0.95b3
#
DISCID=29037004
DTITLE=Zaffy and The Boomers - What You See Is What You Get
DYEAR=1900
DGENRE=Blues
TTITLE0=Falling
TTITLE1=Walking Out The Door
TTITLE2=Crying For Love
TTITLE3=What You See Is What You Get
EXTD=
EXTT0=
EXTT1=
EXTT2=
EXTT3=
PLAYORDER=
